<?xml version="1.0" encoding="UTF-8" standalone="no"?>
<!DOCTYPE svg PUBLIC "-//W3C//DTD SVG 1.1//EN"
 "http://www.w3.org/Graphics/SVG/1.1/DTD/svg11.dtd">
<!-- Generated by graphviz version 2.38.0 (20140413.2041)
 -->
<!-- Title: go Pages: 1 -->
<svg width="100%" height="100%" xmlns="http://www.w3.org/2000/svg" xmlns:xlink="http://www.w3.org/1999/xlink">
<script xlink:href="https://www.cyberz.org/projects/SVGPan/SVGPan.js"/><g id="viewport" transform="scale(0.5,0.5) translate(0,0)"><g id="graph0" class="graph" transform="scale(1 1) rotate(0) translate(4 846)">
<title>go</title>
<polygon fill="white" stroke="none" points="-4,4 -4,-846 1478,-846 1478,4 -4,4"/>
<g id="clust1" class="cluster"><title>cluster_L</title>
<polygon fill="none" stroke="black" points="8,-670 8,-834 478,-834 478,-670 8,-670"/>
</g>
<!-- L -->
<g id="node1" class="node"><title>L</title>
<polygon fill="#f8f8f8" stroke="black" points="470.5,-826 15.5,-826 15.5,-678 470.5,-678 470.5,-826"/>
<text text-anchor="start" x="23.5" y="-796.4" font-family="Times,serif" font-size="32.00">File: go</text>
<text text-anchor="start" x="23.5" y="-761.4" font-family="Times,serif" font-size="32.00">Type: cpu</text>
<text text-anchor="start" x="23.5" y="-726.4" font-family="Times,serif" font-size="32.00">18.90s of 19.81s total (95.41%)</text>
<text text-anchor="start" x="23.5" y="-691.4" font-family="Times,serif" font-size="32.00">Dropped 51 nodes (cum &lt;= 0.10s)</text>
</g>
<!-- N1 -->
<g id="node2" class="node"><title>N1</title>
<g id="a_node2"><a xlink:title="runtime.epollwait (13.51s)">
<polygon fill="#f8f8f8" stroke="black" points="623.5,-627 436.5,-627 436.5,-567 623.5,-567 623.5,-627"/>
<text text-anchor="middle" x="530" y="-603.8" font-family="Times,serif" font-size="24.00">runtime.epollwait</text>
<text text-anchor="middle" x="530" y="-577.8" font-family="Times,serif" font-size="24.00">13.51s(68.20%)</text>
</a>
</g>
</g>
<!-- N2 -->
<g id="node3" class="node"><title>N2</title>
<g id="a_node3"><a xlink:title="syscall.Syscall (2.83s)">
<polygon fill="#f8f8f8" stroke="black" points="1231.5,-154 1102.5,-154 1102.5,-92 1231.5,-92 1231.5,-154"/>
<text text-anchor="middle" x="1167" y="-137.2" font-family="Times,serif" font-size="16.00">syscall.Syscall</text>
<text text-anchor="middle" x="1167" y="-119.2" font-family="Times,serif" font-size="16.00">2.63s(13.28%)</text>
<text text-anchor="middle" x="1167" y="-101.2" font-family="Times,serif" font-size="16.00">of 2.83s(14.29%)</text>
</a>
</g>
</g>
<!-- N8 -->
<g id="node9" class="node"><title>N8</title>
<g id="a_node9"><a xlink:title="runtime.exitsyscall (0.13s)">
<polygon fill="#f8f8f8" stroke="black" points="1214,-41 1120,-41 1120,-0 1214,-0 1214,-41"/>
<text text-anchor="middle" x="1167" y="-29" font-family="Times,serif" font-size="10.00">runtime.exitsyscall</text>
<text text-anchor="middle" x="1167" y="-18" font-family="Times,serif" font-size="10.00">0.11s(0.56%)</text>
<text text-anchor="middle" x="1167" y="-7" font-family="Times,serif" font-size="10.00">of 0.13s(0.66%)</text>
</a>
</g>
</g>
<!-- N2&#45;&gt;N8 -->
<g id="edge17" class="edge"><title>N2&#45;&gt;N8</title>
<g id="a_edge17"><a xlink:title="syscall.Syscall &#45;&gt; runtime.exitsyscall (0.13s)">
<path fill="none" stroke="black" d="M1167,-91.8467C1167,-79.0183 1167,-64.0977 1167,-51.3073"/>
<polygon fill="black" stroke="black" points="1170.5,-51.1571 1167,-41.1571 1163.5,-51.1571 1170.5,-51.1571"/>
</a>
</g>
<g id="a_edge17&#45;label"><a xlink:title="syscall.Syscall &#45;&gt; runtime.exitsyscall (0.13s)">
<text text-anchor="middle" x="1184" y="-62.8" font-family="Times,serif" font-size="14.00"> 0.13s</text>
</a>
</g>
</g>
<!-- N3 -->
<g id="node4" class="node"><title>N3</title>
<g id="a_node4"><a xlink:title="runtime.futex (1.72s)">
<polygon fill="#f8f8f8" stroke="black" points="732.5,-616 641.5,-616 641.5,-578 732.5,-578 732.5,-616"/>
<text text-anchor="middle" x="687" y="-600.8" font-family="Times,serif" font-size="14.00">runtime.futex</text>
<text text-anchor="middle" x="687" y="-585.8" font-family="Times,serif" font-size="14.00">1.72s(8.68%)</text>
</a>
</g>
</g>
<!-- N4 -->
<g id="node5" class="node"><title>N4</title>
<g id="a_node5"><a xlink:title="runtime.xchg (0.20s)">
<polygon fill="#f8f8f8" stroke="black" points="821.5,-615 750.5,-615 750.5,-579 821.5,-579 821.5,-615"/>
<text text-anchor="middle" x="786" y="-600" font-family="Times,serif" font-size="10.00">runtime.xchg</text>
<text text-anchor="middle" x="786" y="-589" font-family="Times,serif" font-size="10.00">0.20s(1.01%)</text>
</a>
</g>
</g>
<!-- N5 -->
<g id="node6" class="node"><title>N5</title>
<g id="a_node6"><a xlink:title="runtime.lock (0.18s)">
<polygon fill="#f8f8f8" stroke="black" points="910.5,-615 839.5,-615 839.5,-579 910.5,-579 910.5,-615"/>
<text text-anchor="middle" x="875" y="-600" font-family="Times,serif" font-size="10.00">runtime.lock</text>
<text text-anchor="middle" x="875" y="-589" font-family="Times,serif" font-size="10.00">0.18s(0.91%)</text>
</a>
</g>
</g>
<!-- N6 -->
<g id="node7" class="node"><title>N6</title>
<g id="a_node7"><a xlink:title="runtime.osyield (0.14s)">
<polygon fill="#f8f8f8" stroke="black" points="1009,-615 929,-615 929,-579 1009,-579 1009,-615"/>
<text text-anchor="middle" x="969" y="-600" font-family="Times,serif" font-size="10.00">runtime.osyield</text>
<text text-anchor="middle" x="969" y="-589" font-family="Times,serif" font-size="10.00">0.14s(0.71%)</text>
</a>
</g>
</g>
<!-- N7 -->
<g id="node8" class="node"><title>N7</title>
<g id="a_node8"><a xlink:title="runtime.cas (0.11s)">
<polygon fill="#f8f8f8" stroke="black" points="1098.5,-615 1027.5,-615 1027.5,-579 1098.5,-579 1098.5,-615"/>
<text text-anchor="middle" x="1063" y="-600" font-family="Times,serif" font-size="10.00">runtime.cas</text>
<text text-anchor="middle" x="1063" y="-589" font-family="Times,serif" font-size="10.00">0.11s(0.56%)</text>
</a>
</g>
</g>
<!-- N9 -->
<g id="node10" class="node"><title>N9</title>
<g id="a_node10"><a xlink:title="runtime.deferreturn (0.17s)">
<polygon fill="#f8f8f8" stroke="black" points="1320.5,-335 1225.5,-335 1225.5,-294 1320.5,-294 1320.5,-335"/>
<text text-anchor="middle" x="1273" y="-323" font-family="Times,serif" font-size="10.00">runtime.deferreturn</text>
<text text-anchor="middle" x="1273" y="-312" font-family="Times,serif" font-size="10.00">0.08s(0.4%)</text>
<text text-anchor="middle" x="1273" y="-301" font-family="Times,serif" font-size="10.00">of 0.17s(0.86%)</text>
</a>
</g>
</g>
<!-- N10 -->
<g id="node11" class="node"><title>N10</title>
<g id="a_node11"><a xlink:title="net.(*netFD).Read (1.12s)">
<polygon fill="#f8f8f8" stroke="black" points="1323,-427 1231,-427 1231,-386 1323,-386 1323,-427"/>
<text text-anchor="middle" x="1277" y="-415" font-family="Times,serif" font-size="10.00">net.(*netFD).Read</text>
<text text-anchor="middle" x="1277" y="-404" font-family="Times,serif" font-size="10.00">0.07s(0.35%)</text>
<text text-anchor="middle" x="1277" y="-393" font-family="Times,serif" font-size="10.00">of 1.12s(5.65%)</text>
</a>
</g>
</g>
<!-- N10&#45;&gt;N9 -->
<g id="edge19" class="edge"><title>N10&#45;&gt;N9</title>
<g id="a_edge19"><a xlink:title="net.(*netFD).Read &#45;&gt; runtime.deferreturn (0.09s)">
<path fill="none" stroke="black" d="M1276.13,-385.971C1275.61,-374.141 1274.92,-358.809 1274.33,-345.468"/>
<polygon fill="black" stroke="black" points="1277.82,-345.136 1273.88,-335.301 1270.83,-345.447 1277.82,-345.136"/>
</a>
</g>
<g id="a_edge19&#45;label"><a xlink:title="net.(*netFD).Read &#45;&gt; runtime.deferreturn (0.09s)">
<text text-anchor="middle" x="1293" y="-356.8" font-family="Times,serif" font-size="14.00"> 0.09s</text>
</a>
</g>
</g>
<!-- N16 -->
<g id="node17" class="node"><title>N16</title>
<g id="a_node17"><a xlink:title="runtime.convT2I (0.10s)">
<polygon fill="#f8f8f8" stroke="black" points="1454,-142 1378,-142 1378,-104 1454,-104 1454,-142"/>
<text text-anchor="middle" x="1416" y="-130.8" font-family="Times,serif" font-size="9.00">runtime.convT2I</text>
<text text-anchor="middle" x="1416" y="-120.8" font-family="Times,serif" font-size="9.00">0.01s(0.05%)</text>
<text text-anchor="middle" x="1416" y="-110.8" font-family="Times,serif" font-size="9.00">of 0.10s(0.5%)</text>
</a>
</g>
</g>
<!-- N10&#45;&gt;N16 -->
<g id="edge22" class="edge"><title>N10&#45;&gt;N16</title>
<g id="a_edge22"><a xlink:title="net.(*netFD).Read &#45;&gt; runtime.convT2I (0.03s)">
<path fill="none" stroke="black" d="M1323.16,-397.335C1357.54,-388.493 1401.87,-370.564 1422,-335 1454.94,-276.813 1437.88,-194.387 1425.36,-151.83"/>
<polygon fill="black" stroke="black" points="1428.67,-150.683 1422.38,-142.152 1421.97,-152.739 1428.67,-150.683"/>
</a>
</g>
<g id="a_edge22&#45;label"><a xlink:title="net.(*netFD).Read &#45;&gt; runtime.convT2I (0.03s)">
<text text-anchor="middle" x="1457" y="-264.8" font-family="Times,serif" font-size="14.00"> 0.03s</text>
</a>
</g>
</g>
<!-- N20 -->
<g id="node21" class="node"><title>N20</title>
<g id="a_node21"><a xlink:title="syscall.Read (0.77s)">
<polygon fill="#f8f8f8" stroke="black" points="1413,-332.5 1339,-332.5 1339,-296.5 1413,-296.5 1413,-332.5"/>
<text text-anchor="middle" x="1376" y="-317.1" font-family="Times,serif" font-size="8.00">syscall.Read</text>
<text text-anchor="middle" x="1376" y="-308.1" font-family="Times,serif" font-size="8.00">0 of 0.77s(3.89%)</text>
</a>
</g>
</g>
<!-- N10&#45;&gt;N20 -->
<g id="edge11" class="edge"><title>N10&#45;&gt;N20</title>
<g id="a_edge11"><a xlink:title="net.(*netFD).Read &#45;&gt; syscall.Read (0.77s)">
<path fill="none" stroke="black" d="M1298.48,-385.971C1313.53,-372.287 1333.74,-353.918 1349.75,-339.364"/>
<polygon fill="black" stroke="black" points="1352.18,-341.88 1357.23,-332.564 1347.48,-336.701 1352.18,-341.88"/>
</a>
</g>
<g id="a_edge11&#45;label"><a xlink:title="net.(*netFD).Read &#45;&gt; syscall.Read (0.77s)">
<text text-anchor="middle" x="1350" y="-356.8" font-family="Times,serif" font-size="14.00"> 0.77s</text>
</a>
</g>
</g>
<!-- N11 -->
<g id="node12" class="node"><title>N11</title>
<g id="a_node12"><a xlink:title="main.handleConnection (3.60s)">
<polygon fill="#f8f8f8" stroke="black" points="1217,-616 1117,-616 1117,-578 1217,-578 1217,-616"/>
<text text-anchor="middle" x="1167" y="-604.8" font-family="Times,serif" font-size="9.00">main.handleConnection</text>
<text text-anchor="middle" x="1167" y="-594.8" font-family="Times,serif" font-size="9.00">0.04s(0.2%)</text>
<text text-anchor="middle" x="1167" y="-584.8" font-family="Times,serif" font-size="9.00">of 3.60s(18.17%)</text>
</a>
</g>
</g>
<!-- N13 -->
<g id="node14" class="node"><title>N13</title>
<g id="a_node14"><a xlink:title="net.(*conn).Write (2.43s)">
<polygon fill="#f8f8f8" stroke="black" points="1207,-516 1127,-516 1127,-478 1207,-478 1207,-516"/>
<text text-anchor="middle" x="1167" y="-504.8" font-family="Times,serif" font-size="9.00">net.(*conn).Write</text>
<text text-anchor="middle" x="1167" y="-494.8" font-family="Times,serif" font-size="9.00">0.02s(0.1%)</text>
<text text-anchor="middle" x="1167" y="-484.8" font-family="Times,serif" font-size="9.00">of 2.43s(12.27%)</text>
</a>
</g>
</g>
<!-- N11&#45;&gt;N13 -->
<g id="edge3" class="edge"><title>N11&#45;&gt;N13</title>
<g id="a_edge3"><a xlink:title="main.handleConnection &#45;&gt; net.(*conn).Write (2.43s)">
<path fill="none" stroke="black" d="M1167,-577.567C1167,-563.103 1167,-542.724 1167,-526.211"/>
<polygon fill="black" stroke="black" points="1170.5,-526.019 1167,-516.019 1163.5,-526.019 1170.5,-526.019"/>
</a>
</g>
<g id="a_edge3&#45;label"><a xlink:title="main.handleConnection &#45;&gt; net.(*conn).Write (2.43s)">
<text text-anchor="middle" x="1184" y="-537.8" font-family="Times,serif" font-size="14.00"> 2.43s</text>
</a>
</g>
</g>
<!-- N15 -->
<g id="node16" class="node"><title>N15</title>
<g id="a_node16"><a xlink:title="net.(*conn).Read (1.13s)">
<polygon fill="#f8f8f8" stroke="black" points="1306.5,-516 1229.5,-516 1229.5,-478 1306.5,-478 1306.5,-516"/>
<text text-anchor="middle" x="1268" y="-504.8" font-family="Times,serif" font-size="9.00">net.(*conn).Read</text>
<text text-anchor="middle" x="1268" y="-494.8" font-family="Times,serif" font-size="9.00">0.01s(0.05%)</text>
<text text-anchor="middle" x="1268" y="-484.8" font-family="Times,serif" font-size="9.00">of 1.13s(5.70%)</text>
</a>
</g>
</g>
<!-- N11&#45;&gt;N15 -->
<g id="edge9" class="edge"><title>N11&#45;&gt;N15</title>
<g id="a_edge9"><a xlink:title="main.handleConnection &#45;&gt; net.(*conn).Read (1.13s)">
<path fill="none" stroke="black" d="M1186,-577.567C1201.76,-562.277 1224.33,-540.375 1241.8,-523.42"/>
<polygon fill="black" stroke="black" points="1244.69,-525.495 1249.43,-516.019 1239.81,-520.471 1244.69,-525.495"/>
</a>
</g>
<g id="a_edge9&#45;label"><a xlink:title="main.handleConnection &#45;&gt; net.(*conn).Read (1.13s)">
<text text-anchor="middle" x="1247" y="-537.8" font-family="Times,serif" font-size="14.00"> 1.13s</text>
</a>
</g>
</g>
<!-- N12 -->
<g id="node13" class="node"><title>N12</title>
<g id="a_node13"><a xlink:title="syscall.write (2.17s)">
<polygon fill="#f8f8f8" stroke="black" points="1207,-243 1127,-243 1127,-205 1207,-205 1207,-243"/>
<text text-anchor="middle" x="1167" y="-231.8" font-family="Times,serif" font-size="9.00">syscall.write</text>
<text text-anchor="middle" x="1167" y="-221.8" font-family="Times,serif" font-size="9.00">0.04s(0.2%)</text>
<text text-anchor="middle" x="1167" y="-211.8" font-family="Times,serif" font-size="9.00">of 2.17s(10.95%)</text>
</a>
</g>
</g>
<!-- N12&#45;&gt;N2 -->
<g id="edge7" class="edge"><title>N12&#45;&gt;N2</title>
<g id="a_edge7"><a xlink:title="syscall.write &#45;&gt; syscall.Syscall (2.13s)">
<path fill="none" stroke="black" d="M1167,-204.842C1167,-193.433 1167,-178.249 1167,-164.124"/>
<polygon fill="black" stroke="black" points="1170.5,-164.094 1167,-154.094 1163.5,-164.094 1170.5,-164.094"/>
</a>
</g>
<g id="a_edge7&#45;label"><a xlink:title="syscall.write &#45;&gt; syscall.Syscall (2.13s)">
<text text-anchor="middle" x="1184" y="-175.8" font-family="Times,serif" font-size="14.00"> 2.13s</text>
</a>
</g>
</g>
<!-- N14 -->
<g id="node15" class="node"><title>N14</title>
<g id="a_node15"><a xlink:title="net.(*netFD).Write (2.41s)">
<polygon fill="#f8f8f8" stroke="black" points="1209,-425.5 1125,-425.5 1125,-387.5 1209,-387.5 1209,-425.5"/>
<text text-anchor="middle" x="1167" y="-414.3" font-family="Times,serif" font-size="9.00">net.(*netFD).Write</text>
<text text-anchor="middle" x="1167" y="-404.3" font-family="Times,serif" font-size="9.00">0.02s(0.1%)</text>
<text text-anchor="middle" x="1167" y="-394.3" font-family="Times,serif" font-size="9.00">of 2.41s(12.17%)</text>
</a>
</g>
</g>
<!-- N13&#45;&gt;N14 -->
<g id="edge4" class="edge"><title>N13&#45;&gt;N14</title>
<g id="a_edge4"><a xlink:title="net.(*conn).Write &#45;&gt; net.(*netFD).Write (2.41s)">
<path fill="none" stroke="black" d="M1167,-477.663C1167,-465.598 1167,-449.565 1167,-435.871"/>
<polygon fill="black" stroke="black" points="1170.5,-435.511 1167,-425.511 1163.5,-435.511 1170.5,-435.511"/>
</a>
</g>
<g id="a_edge4&#45;label"><a xlink:title="net.(*conn).Write &#45;&gt; net.(*netFD).Write (2.41s)">
<text text-anchor="middle" x="1184" y="-448.8" font-family="Times,serif" font-size="14.00"> 2.41s</text>
</a>
</g>
</g>
<!-- N14&#45;&gt;N9 -->
<g id="edge20" class="edge"><title>N14&#45;&gt;N9</title>
<g id="a_edge20"><a xlink:title="net.(*netFD).Write &#45;&gt; runtime.deferreturn (0.08s)">
<path fill="none" stroke="black" d="M1188.45,-387.287C1203.74,-374.31 1224.52,-356.659 1241.66,-342.108"/>
<polygon fill="black" stroke="black" points="1244.38,-344.388 1249.74,-335.247 1239.85,-339.052 1244.38,-344.388"/>
</a>
</g>
<g id="a_edge20&#45;label"><a xlink:title="net.(*netFD).Write &#45;&gt; runtime.deferreturn (0.08s)">
<text text-anchor="middle" x="1244" y="-356.8" font-family="Times,serif" font-size="14.00"> 0.08s</text>
</a>
</g>
</g>
<!-- N17 -->
<g id="node18" class="node"><title>N17</title>
<g id="a_node18"><a xlink:title="syscall.Write (2.18s)">
<polygon fill="#f8f8f8" stroke="black" points="1207,-333.5 1127,-333.5 1127,-295.5 1207,-295.5 1207,-333.5"/>
<text text-anchor="middle" x="1167" y="-322.3" font-family="Times,serif" font-size="9.00">syscall.Write</text>
<text text-anchor="middle" x="1167" y="-312.3" font-family="Times,serif" font-size="9.00">0.01s(0.05%)</text>
<text text-anchor="middle" x="1167" y="-302.3" font-family="Times,serif" font-size="9.00">of 2.18s(11.00%)</text>
</a>
</g>
</g>
<!-- N14&#45;&gt;N17 -->
<g id="edge5" class="edge"><title>N14&#45;&gt;N17</title>
<g id="a_edge5"><a xlink:title="net.(*netFD).Write &#45;&gt; syscall.Write (2.18s)">
<path fill="none" stroke="black" d="M1167,-387.287C1167,-374.844 1167,-358.105 1167,-343.921"/>
<polygon fill="black" stroke="black" points="1170.5,-343.686 1167,-333.686 1163.5,-343.686 1170.5,-343.686"/>
</a>
</g>
<g id="a_edge5&#45;label"><a xlink:title="net.(*netFD).Write &#45;&gt; syscall.Write (2.18s)">
<text text-anchor="middle" x="1184" y="-356.8" font-family="Times,serif" font-size="14.00"> 2.18s</text>
</a>
</g>
</g>
<!-- N15&#45;&gt;N10 -->
<g id="edge10" class="edge"><title>N15&#45;&gt;N10</title>
<g id="a_edge10"><a xlink:title="net.(*conn).Read &#45;&gt; net.(*netFD).Read (1.12s)">
<path fill="none" stroke="black" d="M1269.86,-477.663C1271.05,-465.997 1272.61,-450.622 1273.98,-437.239"/>
<polygon fill="black" stroke="black" points="1277.48,-437.344 1275.01,-427.042 1270.52,-436.636 1277.48,-437.344"/>
</a>
</g>
<g id="a_edge10&#45;label"><a xlink:title="net.(*conn).Read &#45;&gt; net.(*netFD).Read (1.12s)">
<text text-anchor="middle" x="1291" y="-448.8" font-family="Times,serif" font-size="14.00"> 1.12s</text>
</a>
</g>
</g>
<!-- N17&#45;&gt;N12 -->
<g id="edge6" class="edge"><title>N17&#45;&gt;N12</title>
<g id="a_edge6"><a xlink:title="syscall.Write &#45;&gt; syscall.write (2.17s)">
<path fill="none" stroke="black" d="M1167,-295.163C1167,-283.098 1167,-267.065 1167,-253.371"/>
<polygon fill="black" stroke="black" points="1170.5,-253.011 1167,-243.011 1163.5,-253.011 1170.5,-253.011"/>
</a>
</g>
<g id="a_edge6&#45;label"><a xlink:title="syscall.Write &#45;&gt; syscall.write (2.17s)">
<text text-anchor="middle" x="1184" y="-264.8" font-family="Times,serif" font-size="14.00"> 2.17s</text>
</a>
</g>
</g>
<!-- N18 -->
<g id="node19" class="node"><title>N18</title>
<g id="a_node19"><a xlink:title="System (16.16s)">
<polygon fill="#f8f8f8" stroke="black" points="571,-770 489,-770 489,-734 571,-734 571,-770"/>
<text text-anchor="middle" x="530" y="-754.6" font-family="Times,serif" font-size="8.00">System</text>
<text text-anchor="middle" x="530" y="-745.6" font-family="Times,serif" font-size="8.00">0 of 16.16s(81.57%)</text>
</a>
</g>
</g>
<!-- N18&#45;&gt;N1 -->
<g id="edge1" class="edge"><title>N18&#45;&gt;N1</title>
<g id="a_edge1"><a xlink:title="System &#45;&gt; runtime.epollwait (13.51s)">
<path fill="none" stroke="black" stroke-width="4" d="M530,-733.746C530,-710.506 530,-668.467 530,-637.308"/>
<polygon fill="black" stroke="black" stroke-width="4" points="533.5,-637.201 530,-627.201 526.5,-637.201 533.5,-637.201"/>
</a>
</g>
<g id="a_edge1&#45;label"><a xlink:title="System &#45;&gt; runtime.epollwait (13.51s)">
<text text-anchor="middle" x="550" y="-648.8" font-family="Times,serif" font-size="14.00"> 13.51s</text>
</a>
</g>
</g>
<!-- N18&#45;&gt;N3 -->
<g id="edge8" class="edge"><title>N18&#45;&gt;N3</title>
<g id="a_edge8"><a xlink:title="System &#45;&gt; runtime.futex (1.71s)">
<path fill="none" stroke="black" d="M547.705,-733.746C575.323,-706.832 628.81,-654.707 660.87,-623.465"/>
<polygon fill="black" stroke="black" points="663.424,-625.863 668.143,-616.377 658.538,-620.85 663.424,-625.863"/>
</a>
</g>
<g id="a_edge8&#45;label"><a xlink:title="System &#45;&gt; runtime.futex (1.71s)">
<text text-anchor="middle" x="654" y="-648.8" font-family="Times,serif" font-size="14.00"> 1.71s</text>
</a>
</g>
</g>
<!-- N18&#45;&gt;N4 -->
<g id="edge14" class="edge"><title>N18&#45;&gt;N4</title>
<g id="a_edge14"><a xlink:title="System &#45;&gt; runtime.xchg (0.20s)">
<path fill="none" stroke="black" d="M559.932,-733.928C601.039,-710.363 677.14,-666.319 741,-627 744.376,-624.921 747.876,-622.73 751.366,-620.522"/>
<polygon fill="black" stroke="black" points="753.393,-623.381 759.941,-615.051 749.628,-617.479 753.393,-623.381"/>
</a>
</g>
<g id="a_edge14&#45;label"><a xlink:title="System &#45;&gt; runtime.xchg (0.20s)">
<text text-anchor="middle" x="724" y="-648.8" font-family="Times,serif" font-size="14.00"> 0.20s</text>
</a>
</g>
</g>
<!-- N18&#45;&gt;N5 -->
<g id="edge15" class="edge"><title>N18&#45;&gt;N5</title>
<g id="a_edge15"><a xlink:title="System &#45;&gt; runtime.lock (0.18s)">
<path fill="none" stroke="black" d="M571.331,-736.614C630.183,-715.532 740.873,-673.65 830,-627 833.798,-625.012 837.689,-622.799 841.514,-620.506"/>
<polygon fill="black" stroke="black" points="843.602,-623.33 850.251,-615.082 839.91,-617.383 843.602,-623.33"/>
</a>
</g>
<g id="a_edge15&#45;label"><a xlink:title="System &#45;&gt; runtime.lock (0.18s)">
<text text-anchor="middle" x="808" y="-648.8" font-family="Times,serif" font-size="14.00"> 0.18s</text>
</a>
</g>
</g>
<!-- N18&#45;&gt;N6 -->
<g id="edge16" class="edge"><title>N18&#45;&gt;N6</title>
<g id="a_edge16"><a xlink:title="System &#45;&gt; runtime.osyield (0.13s)">
<path fill="none" stroke="black" d="M571.064,-741.654C643.483,-724.362 797.707,-683.882 919,-627 923.423,-624.926 927.973,-622.591 932.44,-620.171"/>
<polygon fill="black" stroke="black" points="934.414,-623.077 941.429,-615.138 930.994,-616.97 934.414,-623.077"/>
</a>
</g>
<g id="a_edge16&#45;label"><a xlink:title="System &#45;&gt; runtime.osyield (0.13s)">
<text text-anchor="middle" x="886" y="-648.8" font-family="Times,serif" font-size="14.00"> 0.13s</text>
</a>
</g>
</g>
<!-- N18&#45;&gt;N7 -->
<g id="edge18" class="edge"><title>N18&#45;&gt;N7</title>
<g id="a_edge18"><a xlink:title="System &#45;&gt; runtime.cas (0.09s)">
<path fill="none" stroke="black" d="M571.181,-741.8C640.686,-726.106 785.58,-692.679 907,-660 956.699,-646.624 971.233,-648.489 1018,-627 1022.1,-625.115 1026.27,-622.902 1030.32,-620.553"/>
<polygon fill="black" stroke="black" points="1032.26,-623.472 1038.96,-615.268 1028.61,-617.5 1032.26,-623.472"/>
</a>
</g>
<g id="a_edge18&#45;label"><a xlink:title="System &#45;&gt; runtime.cas (0.09s)">
<text text-anchor="middle" x="987" y="-648.8" font-family="Times,serif" font-size="14.00"> 0.09s</text>
</a>
</g>
</g>
<!-- N19 -->
<g id="node20" class="node"><title>N19</title>
<g id="a_node20"><a xlink:title="runtime.goexit (3.60s)">
<polygon fill="#f8f8f8" stroke="black" points="1206,-770 1128,-770 1128,-734 1206,-734 1206,-770"/>
<text text-anchor="middle" x="1167" y="-754.6" font-family="Times,serif" font-size="8.00">runtime.goexit</text>
<text text-anchor="middle" x="1167" y="-745.6" font-family="Times,serif" font-size="8.00">0 of 3.60s(18.17%)</text>
</a>
</g>
</g>
<!-- N19&#45;&gt;N11 -->
<g id="edge2" class="edge"><title>N19&#45;&gt;N11</title>
<g id="a_edge2"><a xlink:title="runtime.goexit &#45;&gt; main.handleConnection (3.60s)">
<path fill="none" stroke="black" d="M1167,-733.746C1167,-707.74 1167,-658.198 1167,-626.698"/>
<polygon fill="black" stroke="black" points="1170.5,-626.377 1167,-616.377 1163.5,-626.377 1170.5,-626.377"/>
</a>
</g>
<g id="a_edge2&#45;label"><a xlink:title="runtime.goexit &#45;&gt; main.handleConnection (3.60s)">
<text text-anchor="middle" x="1184" y="-648.8" font-family="Times,serif" font-size="14.00"> 3.60s</text>
</a>
</g>
</g>
<!-- N21 -->
<g id="node22" class="node"><title>N21</title>
<g id="a_node22"><a xlink:title="syscall.read (0.77s)">
<polygon fill="#f8f8f8" stroke="black" points="1413,-242 1339,-242 1339,-206 1413,-206 1413,-242"/>
<text text-anchor="middle" x="1376" y="-226.6" font-family="Times,serif" font-size="8.00">syscall.read</text>
<text text-anchor="middle" x="1376" y="-217.6" font-family="Times,serif" font-size="8.00">0 of 0.77s(3.89%)</text>
</a>
</g>
</g>
<!-- N20&#45;&gt;N21 -->
<g id="edge12" class="edge"><title>N20&#45;&gt;N21</title>
<g id="a_edge12"><a xlink:title="syscall.Read &#45;&gt; syscall.read (0.77s)">
<path fill="none" stroke="black" d="M1376,-296.436C1376,-283.948 1376,-266.744 1376,-252.348"/>
<polygon fill="black" stroke="black" points="1379.5,-252.011 1376,-242.011 1372.5,-252.011 1379.5,-252.011"/>
</a>
</g>
<g id="a_edge12&#45;label"><a xlink:title="syscall.Read &#45;&gt; syscall.read (0.77s)">
<text text-anchor="middle" x="1393" y="-264.8" font-family="Times,serif" font-size="14.00"> 0.77s</text>
</a>
</g>
</g>
<!-- N21&#45;&gt;N2 -->
<g id="edge13" class="edge"><title>N21&#45;&gt;N2</title>
<g id="a_edge13"><a xlink:title="syscall.read &#45;&gt; syscall.Syscall (0.70s)">
<path fill="none" stroke="black" d="M1340.07,-205.981C1312.65,-192.994 1273.96,-174.666 1240.11,-158.633"/>
<polygon fill="black" stroke="black" points="1241.24,-155.295 1230.71,-154.178 1238.25,-161.622 1241.24,-155.295"/>
</a>
</g>
<g id="a_edge13&#45;label"><a xlink:title="syscall.read &#45;&gt; syscall.Syscall (0.70s)">
<text text-anchor="middle" x="1314" y="-175.8" font-family="Times,serif" font-size="14.00"> 0.70s</text>
</a>
</g>
</g>
<!-- N21&#45;&gt;N16 -->
<g id="edge21" class="edge"><title>N21&#45;&gt;N16</title>
<g id="a_edge21"><a xlink:title="syscall.read &#45;&gt; runtime.convT2I (0.07s)">
<path fill="none" stroke="black" d="M1381.14,-205.806C1384.27,-195.825 1388.52,-183.075 1393,-172 1395.7,-165.323 1398.89,-158.263 1402.02,-151.672"/>
<polygon fill="black" stroke="black" points="1405.27,-152.974 1406.49,-142.449 1398.98,-149.917 1405.27,-152.974"/>
</a>
</g>
<g id="a_edge21&#45;label"><a xlink:title="syscall.read &#45;&gt; runtime.convT2I (0.07s)">
<text text-anchor="middle" x="1410" y="-175.8" font-family="Times,serif" font-size="14.00"> 0.07s</text>
</a>
</g>
</g>
</g>
</g></svg>
